<?xml version="1.0" standalone="no"?>
<!DOCTYPE svg PUBLIC "-//W3C//DTD SVG 20010904//EN"
 "http://www.w3.org/TR/2001/REC-SVG-20010904/DTD/svg10.dtd">
<svg version="1.0" xmlns="http://www.w3.org/2000/svg"
 width="500.000000pt" height="500.000000pt" viewBox="0 0 500.000000 500.000000"
 preserveAspectRatio="xMidYMid meet">

<g transform="translate(0.000000,500.000000) scale(0.100000,-0.100000)"
fill="#000000" stroke="none">
<path d="M1845 3239 c-46 -11 -194 -39 -244 -47 l-34 -5 6 -276 c4 -152 7
-553 7 -892 l0 -616 368 97 367 97 0 146 c0 81 -2 147 -5 147 -3 0 -90 -23
-195 -50 -104 -27 -193 -50 -197 -50 -5 0 -8 179 -8 398 -1 274 -4 392 -11
380 -13 -22 -55 -23 -63 -2 -10 27 -7 43 13 54 24 12 48 4 54 -18 3 -10 5 0 6
20 1 32 5 39 29 44 15 4 106 28 202 53 l175 46 -3 145 c-2 80 -5 146 -6 147
-1 1 -87 -20 -190 -47 -104 -28 -192 -50 -197 -50 -5 0 -9 65 -9 145 0 110 -3
145 -12 144 -7 -1 -31 -5 -53 -10z m-184 -490 c9 -18 7 -25 -10 -43 -17 -16
-25 -18 -39 -10 -19 12 -27 37 -18 60 8 22 54 17 67 -7z m119 -44 c26 -32 -13
-81 -47 -59 -24 15 -27 38 -8 58 20 20 39 20 55 1z"/>
<path d="M1099 3028 l-126 -50 -7 -51 c-55 -446 -146 -1150 -148 -1153 -2 -2
-14 72 -27 164 -12 92 -47 338 -77 548 -30 209 -54 386 -54 392 0 21 -29 13
-128 -37 -53 -27 -114 -56 -134 -65 -24 -9 -38 -22 -38 -33 0 -10 22 -155 49
-323 101 -635 215 -1335 217 -1338 2 -4 386 97 392 102 3 4 28 172 182 1266
44 311 82 580 85 598 6 31 5 32 -27 31 -18 -1 -90 -24 -159 -51z m93 -341 c9
-17 7 -24 -12 -39 -40 -33 -87 15 -50 52 22 22 45 17 62 -13z m-152 -1 c19
-23 8 -61 -18 -64 -44 -7 -67 32 -36 62 19 20 38 20 54 2z m-365 -92 c19 -20
16 -43 -7 -58 -35 -22 -74 27 -48 59 16 19 35 19 55 -1z m-78 -100 c8 -22 -17
-45 -46 -42 -32 4 -42 45 -16 65 20 14 52 2 62 -23z m-67 -103 c20 -38 -13
-71 -51 -51 -18 10 -26 50 -12 63 13 14 53 6 63 -12z"/>
</g>
</svg>
